<svg width="2000" height="796" viewBox="0 0 2000 796" fill="none" xmlns="http://www.w3.org/2000/svg">
<path fill-rule="evenodd" clip-rule="evenodd" d="M132.362 591.935C134.043 591.935 135.724 594.96 135.724 598.322C135.724 602.02 137.404 606.054 139.085 607.063C141.775 608.743 141.439 610.761 138.749 614.123C136.396 617.148 136.06 618.829 137.741 618.493C139.421 618.156 141.439 618.493 142.447 618.829C149.171 621.854 199.261 620.174 205.984 616.476C210.691 614.459 215.397 613.114 217.078 614.123C218.759 615.131 222.121 614.122 224.81 612.105C227.5 610.088 231.198 609.08 232.879 610.088C234.56 611.433 238.257 609.416 240.611 606.39C243.3 602.692 249.015 600.339 256.075 600.676C262.126 601.012 267.841 599.667 268.85 597.986C269.858 596.641 274.901 595.296 279.943 595.296C284.986 595.296 290.365 594.288 291.71 592.607C293.054 591.263 299.778 589.918 306.501 589.918C313.561 589.581 321.965 588.573 325.663 587.565C329.361 586.556 343.145 583.194 356.592 580.505C369.703 577.479 384.831 573.445 390.209 571.428C395.252 569.411 403.993 567.058 409.708 566.385C415.086 565.713 423.491 564.705 428.197 563.696C432.904 562.688 443.325 561.006 451.394 559.998C459.798 558.989 468.202 556.636 470.219 554.955C472.573 553.274 475.262 552.602 476.271 553.611C477.279 554.955 480.977 554.619 484.339 553.274C487.701 551.593 494.088 549.913 498.794 549.24C503.501 548.568 509.552 547.223 512.242 545.879C514.931 544.87 520.982 543.525 525.689 543.189C530.395 542.517 540.144 540.836 547.54 538.819C554.936 536.802 573.089 532.767 587.881 529.742C602.673 527.052 619.482 523.018 625.197 521.337C630.912 519.32 640.661 517.976 647.048 517.976C653.436 517.976 664.53 516.295 672.262 514.614C679.994 512.933 691.424 510.916 698.147 509.908C704.535 509.235 712.939 506.882 716.637 504.865C720.335 502.848 733.11 500.495 744.876 499.822C756.306 498.814 770.425 497.469 776.14 496.461C795.302 492.763 809.758 490.073 811.439 489.401C822.196 486.711 857.159 482.005 885.398 479.315C897.5 477.971 914.309 474.945 923.049 472.256C931.79 469.23 941.539 467.549 944.901 468.222C948.263 468.558 952.633 467.886 954.65 466.877C956.667 465.532 970.45 463.515 984.906 462.507C999.362 461.498 1015.83 459.817 1021.55 458.809C1026.93 458.136 1043.4 456.792 1057.52 456.12C1071.98 455.111 1085.42 453.43 1087.78 451.749C1090.13 450.404 1095.84 449.06 1100.55 448.723C1127.11 447.042 1166.78 443.009 1191.65 439.311C1207.46 436.957 1228.97 435.276 1239.39 435.612C1249.81 435.612 1258.55 434.604 1258.55 433.259C1258.55 431.915 1263.93 431.915 1270.66 432.923C1278.39 434.268 1283.77 433.596 1285.11 430.906C1288.14 426.536 1372.85 423.51 1372.85 427.881C1372.85 429.561 1375.21 430.57 1377.9 430.57C1380.59 430.57 1382.94 429.225 1382.94 427.544C1382.94 426.2 1389.66 424.855 1397.73 424.855C1408.82 424.855 1412.19 425.863 1410.84 429.561C1409.5 432.587 1410.84 433.259 1415.21 431.915C1419.25 430.794 1419.36 431.466 1415.55 433.931C1410.84 436.957 1408.15 436.957 1405.46 434.268C1400.76 429.562 1393.02 429.561 1393.02 433.931C1393.02 435.612 1395.38 436.285 1398.07 435.276C1400.76 433.932 1403.11 434.604 1403.11 436.621C1403.11 442 1392.02 444.689 1389.33 439.983C1387.98 437.966 1387.65 434.604 1388.65 432.923C1389.66 431.242 1387.31 431.578 1383.61 433.595C1379.91 435.612 1375.88 439.983 1374.53 443.681C1372.52 449.732 1359.41 456.119 1359.41 450.74C1359.41 449.396 1357.05 447.043 1354.03 446.034C1349.32 444.353 1348.99 444.689 1352.68 449.059C1356.05 453.094 1355.37 454.438 1348.31 457.128C1343.61 458.809 1336.55 459.481 1332.51 458.473C1327.47 457.128 1323.77 458.472 1321.76 462.17C1320.07 465.196 1315.7 467.549 1312.01 467.549C1308.31 467.549 1303.6 469.23 1301.25 470.911C1298.9 472.928 1294.19 476.626 1290.49 479.315C1284.1 484.022 1284.44 484.022 1293.85 480.996L1303.94 477.634L1295.87 484.022C1291.16 487.384 1285.45 489.737 1283.09 488.728C1280.41 487.72 1278.72 488.729 1279.4 491.418C1280.07 493.771 1278.72 495.788 1277.04 496.124C1275.03 496.124 1271.66 497.469 1268.98 499.15C1265.61 501.503 1264.94 500.831 1266.96 497.469C1268.64 494.78 1265.95 496.124 1261.24 500.159C1256.87 504.529 1249.81 507.89 1246.12 507.89C1238.05 507.89 1223.93 523.691 1226.28 530.078C1227.29 532.432 1223.59 535.793 1218.21 538.146C1207.46 542.517 1203.42 552.938 1208.8 562.687C1211.15 567.73 1211.15 570.083 1207.79 572.437C1204.77 574.117 1206.45 574.453 1212.16 573.109C1218.21 571.764 1221.57 572.436 1221.57 575.126C1221.57 577.143 1222.92 578.152 1224.26 577.143C1225.94 576.135 1226.95 580.169 1226.28 586.22C1224.94 604.037 1227.29 607.399 1240.06 607.399C1247.46 607.399 1251.83 605.718 1251.83 603.029C1251.83 600.675 1254.18 598.658 1257.21 598.658C1259.9 598.658 1261.58 600.003 1260.57 601.348C1259.9 602.692 1261.58 604.037 1264.61 604.373C1267.97 604.71 1272.34 605.382 1275.03 606.054C1277.72 606.727 1280.74 603.365 1282.09 598.658L1284.1 590.254L1286.79 597.65C1289.15 605.382 1292.51 607.063 1296.88 603.029C1297.89 601.684 1302.26 600.339 1306.29 599.667C1310.33 598.994 1314.7 597.314 1315.7 595.633C1316.71 593.952 1323.44 591.598 1330.83 590.254C1338.23 588.909 1345.62 586.892 1347.64 585.548C1349.32 584.539 1352.35 583.53 1354.36 583.194C1356.05 582.858 1366.47 580.168 1377.22 576.807C1388.32 573.781 1400.42 570.755 1404.12 570.083C1408.15 569.411 1419.92 566.722 1430 564.032C1440.09 561.343 1460.6 556.3 1475.39 553.274C1490.18 549.912 1518.75 542.853 1539.26 537.81C1559.43 532.431 1578.93 527.389 1581.96 526.717C1653.56 508.227 1720.46 488.392 1741.98 478.979C1748.03 476.29 1755.76 474.273 1759.12 474.273C1762.48 474.273 1766.18 473.264 1767.53 471.92C1768.53 470.575 1772.23 469.23 1774.92 468.894C1777.95 468.558 1785.68 465.532 1792.4 462.17C1799.13 458.809 1806.19 455.783 1808.2 455.111C1820.98 452.085 1845.85 442.336 1849.89 439.311C1854.93 435.277 1869.39 429.897 1897.96 420.484C1908.38 417.123 1922.17 411.072 1928.22 406.701C1934.27 402.331 1939.65 399.305 1940.32 399.978C1942.34 402.331 1971.25 389.556 1969.57 386.867C1967.55 383.505 1976.29 376.109 1978.98 378.799C1983.35 383.169 1998.14 369.722 1998.14 361.653C1998.14 353.585 1995.12 351.905 1982.34 352.241C1979.99 352.577 1978.98 351.232 1979.99 349.551C1981 347.87 1978.98 346.526 1975.96 346.526C1966.54 346.526 1946.37 338.457 1941.67 333.078C1938.3 328.708 1937.97 329.044 1939.65 334.759C1940.66 338.457 1938.98 337.113 1935.61 331.398C1932.59 326.019 1927.88 319.296 1925.19 316.606C1922.5 313.917 1921.16 309.21 1921.83 305.512C1922.84 301.814 1921.16 298.116 1917.12 296.099C1913.43 294.082 1911.75 290.72 1913.09 287.358C1915.11 281.643 1905.36 269.205 1898.3 269.205C1891.91 269.205 1883.51 260.8 1886.53 257.439C1887.88 255.758 1886.87 255.758 1884.52 257.103C1881.15 259.12 1881.15 260.8 1883.84 264.162C1886.53 267.524 1886.2 268.533 1882.5 267.86C1879.47 267.524 1876.45 266.179 1875.1 265.171C1874.09 263.826 1871.07 263.826 1868.38 264.835C1865.69 265.843 1863.67 265.171 1863.67 263.49C1863.67 259.12 1850.23 252.06 1846.19 254.413C1844.17 255.758 1846.53 258.448 1852.24 261.137L1861.99 265.507L1850.22 263.49C1843.84 262.481 1836.11 260.464 1833.75 259.12C1831.06 257.439 1825.35 257.775 1820.98 259.456C1816.61 261.137 1812.57 260.8 1811.56 259.12C1810.22 257.102 1811.56 255.758 1813.92 255.422C1816.27 255.422 1814.93 254.077 1810.56 252.396C1806.52 250.715 1803.16 248.026 1803.16 246.009C1803.16 244.328 1800.13 242.311 1796.44 241.302C1792.74 240.294 1789.71 240.966 1789.71 242.983C1789.71 244.664 1787.7 245 1785.34 243.319C1778.96 239.285 1772.9 239.285 1773.91 243.319C1774.25 245.336 1769.21 247.017 1761.81 247.353C1748.03 247.69 1745.34 243.656 1756.77 239.285C1762.82 237.268 1763.16 236.26 1758.45 234.579C1755.09 233.234 1752.73 233.907 1752.73 235.924C1752.73 237.941 1749.71 238.949 1746.01 237.941C1742.31 236.932 1739.96 237.268 1740.63 238.277C1741.3 239.621 1735.25 240.63 1727.18 240.63C1713.4 240.63 1712.73 240.294 1714.07 232.225C1715.08 225.166 1714.75 224.493 1711.38 228.864C1706.68 234.579 1685.5 237.605 1685.5 232.562C1685.5 230.545 1688.19 229.873 1691.21 230.881C1695.92 232.562 1696.26 232.226 1692.56 229.536C1688.86 226.847 1688.86 226.174 1692.56 224.494C1695.92 223.149 1695.58 222.477 1691.55 222.477C1688.52 222.14 1685.5 223.821 1684.83 226.174C1684.15 228.192 1680.79 230.209 1677.77 230.881C1674.74 231.217 1672.72 230.208 1673.73 228.864C1674.74 227.183 1674.07 225.166 1672.05 223.821C1670.37 222.812 1668.69 223.485 1668.69 225.502C1668.69 227.855 1666.67 228.864 1664.32 227.855C1662.3 227.183 1660.62 224.158 1661.29 220.796C1661.97 217.77 1660.62 215.417 1658.6 215.417C1656.92 215.417 1655.24 217.098 1655.24 219.115C1655.24 221.132 1652.89 220.123 1649.86 217.434C1644.15 211.383 1636.75 210.038 1640.11 215.417C1641.12 217.097 1640.45 218.778 1638.43 218.778C1636.42 218.778 1635.74 220.459 1637.09 222.813C1638.77 225.838 1638.1 225.838 1634.06 222.477C1631.04 220.123 1629.36 216.761 1630.37 215.08C1631.37 213.4 1630.37 212.055 1628.68 212.055C1626.67 212.055 1624.99 214.072 1624.99 216.089C1624.99 219.115 1623.98 218.778 1621.96 215.417C1619.94 212.727 1619.61 209.029 1620.62 207.012C1621.62 205.331 1620.62 205.332 1618.26 207.685C1615.24 210.374 1611.88 210.71 1607.84 208.357C1600.78 204.659 1594.06 205.331 1590.7 210.374C1589.02 212.391 1588.01 212.055 1588.01 209.366C1588.01 207.349 1584.31 205.331 1579.6 205.331C1574.9 205.331 1571.2 203.314 1571.2 200.961C1571.2 198.272 1570.19 197.936 1568.51 200.625C1565.15 206.004 1553.72 205.331 1555.73 199.616C1556.74 196.927 1554.73 195.246 1550.02 194.91C1524.81 194.238 1507.66 192.557 1504.64 190.54C1502.95 189.531 1500.26 190.876 1499.26 193.902C1497.58 198.608 1495.89 198.608 1485.47 192.221C1476.73 187.178 1471.69 186.169 1465.97 188.522C1460.26 190.876 1459.92 191.548 1464.29 191.548C1467.66 191.884 1470.35 193.229 1470.35 195.246C1470.35 199.616 1459.59 194.91 1453.54 187.85C1450.51 184.152 1442.44 181.127 1433.37 180.118C1424.96 179.446 1414.54 177.765 1410.17 177.093C1405.8 176.084 1399.75 176.756 1396.72 178.101C1393.36 180.118 1388.65 179.782 1384.96 177.765C1380.92 175.412 1379.24 175.412 1380.92 177.765C1381.93 179.446 1380.59 181.799 1378.23 182.808C1375.54 183.816 1372.85 183.48 1372.18 181.463C1371.51 179.782 1365.79 177.765 1359.07 176.756C1348.65 175.412 1346.3 176.42 1344.28 182.808C1342.26 189.195 1341.59 189.531 1340.24 184.152C1339.12 180.118 1337 180.118 1333.86 184.152C1330.16 188.859 1329.49 188.859 1331.17 184.825C1332.18 181.127 1330.5 178.774 1325.79 177.429C1320.07 176.084 1319.07 176.757 1321.08 182.472C1322.43 186.842 1321.76 188.523 1319.74 187.178C1317.72 186.17 1315.37 186.506 1314.36 188.186C1313.35 189.531 1307.97 191.884 1302.26 193.229C1296.54 194.238 1292.51 196.591 1293.85 198.272C1294.86 199.953 1293.85 202.642 1291.5 204.323C1286.12 207.685 1277.72 222.14 1281.08 222.14C1282.76 222.14 1283.77 228.191 1283.43 235.587C1283.43 247.69 1284.1 249.034 1290.15 247.017C1295.2 245.673 1295.87 246.009 1292.51 248.362C1287.13 252.396 1290.49 259.12 1297.89 259.12C1300.91 259.12 1302.26 261.137 1301.25 264.162C1299.9 266.852 1300.58 269.877 1302.26 270.886C1304.27 272.23 1305.62 271.222 1305.62 268.869C1305.62 266.516 1306.63 265.843 1307.64 266.852C1308.98 268.197 1307.97 271.222 1305.62 274.248C1301.25 279.626 1305.62 281.307 1311 275.928C1313.01 273.911 1316.04 273.912 1319.07 276.265C1323.44 278.954 1323.44 279.29 1318.39 278.618C1312.68 277.609 1312.34 277.945 1312.34 289.375C1312.34 295.427 1313.01 295.763 1319.07 292.065C1324.44 288.703 1326.46 288.703 1328.48 291.729C1331.17 295.763 1340.58 295.763 1344.62 291.729C1348.99 287.359 1353.36 289.375 1351.34 294.418C1349.32 300.469 1361.42 314.253 1366.13 311.227C1373.19 306.857 1368.82 316.27 1361.09 322.321C1355.71 326.691 1349.99 328.372 1344.95 327.028C1338.56 325.347 1338.23 326.019 1341.93 330.389C1344.62 333.751 1344.95 336.776 1343.27 337.785C1341.25 338.794 1339.24 337.449 1337.89 334.759C1335.54 328.372 1327.81 328.372 1321.42 334.759C1317.05 339.13 1316.04 339.13 1314.36 334.423C1311.33 326.691 1311.67 326.019 1318.06 326.691C1328.48 327.7 1332.85 326.355 1331.17 323.33C1329.15 320.64 1306.63 321.649 1295.87 325.011C1292.17 326.019 1292.17 327.363 1295.53 331.398C1299.23 335.768 1298.22 336.104 1288.47 334.423C1282.09 333.079 1274.35 330.725 1271.33 329.381C1267.97 327.364 1264.94 327.7 1263.6 329.717C1262.25 331.734 1262.59 333.079 1264.27 332.742C1270.66 331.734 1274.69 333.415 1276.71 338.121C1278.05 342.491 1277.38 342.491 1272 339.802C1268.64 338.121 1263.26 337.449 1260.57 338.458C1256.87 339.802 1255.19 338.793 1255.19 334.759C1255.19 331.734 1253.51 330.389 1251.49 331.734C1249.48 332.743 1248.47 336.44 1249.48 339.802C1250.49 344.172 1249.48 345.517 1246.45 344.172C1243.76 343.164 1239.73 344.172 1237.04 346.189C1233.34 349.215 1232 348.543 1230.65 343.5C1229.98 339.802 1230.65 335.432 1232.67 333.415C1235.36 330.726 1234.69 329.717 1230.65 329.717C1227.63 329.717 1225.27 330.725 1225.94 332.406C1226.95 335.768 1212.5 349.887 1210.14 347.534C1209.14 346.19 1210.14 343.164 1212.5 340.139C1215.86 335.768 1215.19 335.768 1207.79 340.475C1199.39 345.853 1198.38 345.853 1191.65 339.466C1187.96 335.768 1184.59 334.423 1184.59 336.104C1184.59 338.121 1187.28 341.147 1190.31 342.828C1193.67 344.845 1194.68 346.526 1192.66 346.526C1190.98 346.526 1187.62 344.845 1185.27 342.492C1183.25 340.475 1179.22 338.121 1176.19 337.785C1172.16 337.113 1172.49 338.457 1177.2 345.853C1182.58 354.258 1182.58 354.594 1176.86 352.241C1173.5 350.896 1169.8 349.887 1169.13 349.887C1168.12 349.887 1168.46 348.207 1169.8 345.853C1171.48 343.5 1170.81 343.164 1168.12 344.509C1165.77 346.189 1162.07 344.509 1159.05 341.147C1154.68 335.096 1154.68 335.432 1157.36 343.164C1161.4 354.93 1158.71 359.3 1148.96 357.283C1142.91 356.275 1141.23 354.258 1142.57 349.887C1145.26 341.147 1137.87 337.785 1132.49 345.181C1130.13 348.879 1128.79 352.577 1129.46 353.922C1130.47 355.266 1128.79 355.602 1126.1 354.594C1123.07 353.585 1120.72 354.258 1120.72 356.275C1120.72 358.292 1119.04 359.973 1117.02 359.973C1115.34 359.973 1114.67 358.628 1115.68 356.611C1119.04 350.896 1102.23 345.181 1095.17 349.551C1089.46 352.577 1090.13 352.913 1099.21 353.249C1105.93 353.249 1109.63 354.93 1109.63 358.292C1109.63 361.317 1108.28 361.99 1105.93 360.309C1101.56 356.947 1056.85 356.947 1056.85 360.309C1056.85 361.654 1052.14 360.981 1046.43 358.964C1037.69 355.603 1035.67 355.939 1032.98 360.645C1030.96 364.343 1026.93 365.688 1020.2 364.679C1014.83 363.671 1009.45 364.679 1008.1 366.696C1007.09 368.377 1004.07 370.058 1002.05 370.058C999.698 370.058 1000.03 368.713 1003.06 366.36C1007.43 363.671 1007.09 362.998 1001.71 364.007C996 365.016 993.31 370.058 992.302 382.497C991.629 387.876 987.595 388.211 984.57 383.505C983.561 381.488 983.897 380.143 985.915 380.143C987.932 380.143 988.604 378.126 987.595 375.437C986.587 373.084 983.897 371.067 981.88 371.067C979.527 371.067 974.148 370.731 969.442 370.394C962.718 370.058 962.046 369.386 966.08 366.696C968.77 365.015 969.442 363.334 967.425 363.334C961.374 363.334 959.357 367.369 962.718 371.739C965.408 374.764 964.735 376.445 961.037 378.126C958.012 379.135 955.995 378.126 955.995 375.101C955.995 372.075 953.978 371.067 950.952 372.075C947.254 373.756 946.582 372.748 947.927 368.714C950.616 361.99 947.927 361.99 937.169 368.714C930.782 373.084 927.084 373.42 921.369 371.067C916.998 369.05 910.947 368.714 906.241 370.394C895.819 374.429 897.164 376.109 909.602 374.764C915.99 373.756 919.015 374.428 917.334 376.445C915.317 378.126 906.913 380.143 897.836 380.816C884.725 381.824 882.372 380.816 883.717 376.781C884.613 373.868 883.717 373.868 881.027 376.781C875.985 383.169 860.184 391.91 863.546 387.203C864.555 385.186 864.219 383.505 862.202 383.505C860.521 383.505 856.15 382.497 852.788 381.488C847.746 379.807 847.746 380.143 851.78 383.169C857.495 387.203 855.814 387.875 834.971 388.548C826.567 388.548 818.835 387.203 817.49 385.522C816.145 383.505 811.439 385.858 806.06 391.237C801.017 396.28 793.958 400.314 789.924 399.978C783.536 399.642 783.872 399.305 791.268 396.952C796.871 395.159 797.095 394.151 791.941 393.927C787.57 393.591 785.217 392.246 786.226 390.229C787.234 388.211 785.889 387.876 783.2 388.884C780.174 389.893 778.493 392.246 779.502 393.59C780.511 394.935 777.149 397.288 772.106 398.633C767.063 399.641 762.357 399.305 761.012 396.952C759.668 394.599 755.633 395.271 748.238 398.633C740.169 402.667 736.135 403.339 730.756 400.314C725.714 397.624 724.033 397.625 724.033 400.986C724.033 404.012 718.654 405.357 707.224 405.02C697.139 405.02 688.734 406.701 686.381 409.391C684.7 411.744 681.675 412.752 679.994 411.744C675.623 409.055 662.176 407.038 664.866 409.391C665.874 410.399 663.857 413.425 660.159 416.114C656.461 418.804 653.436 423.174 653.436 425.864C653.436 429.562 651.755 429.225 646.04 423.846C636.963 415.442 633.265 415.442 633.265 423.174C633.265 426.872 630.912 429.225 626.542 429.225C622.844 429.225 619.818 427.208 619.818 424.855C619.818 419.476 614.775 419.14 609.06 424.519C606.707 426.872 599.311 428.889 592.924 428.553C574.434 427.88 525.689 440.655 525.689 445.698C525.689 448.387 524.008 451.413 521.654 452.758C519.301 454.102 518.965 453.766 520.31 451.077C521.654 449.06 520.31 446.37 516.948 445.026C513.586 443.681 510.561 444.353 509.888 446.37C509.216 448.387 505.518 449.396 502.156 448.387C497.114 447.043 495.433 448.387 495.096 452.758C495.096 456.456 494.088 457.464 493.416 455.447C491.399 450.404 474.59 454.102 469.547 460.49C467.53 463.515 464.504 464.86 463.496 463.515C462.151 462.171 458.117 462.507 454.755 464.524C450.385 466.541 448.368 466.541 448.368 464.187C448.368 457.464 439.291 460.826 435.593 469.23C431.223 478.979 427.525 479.652 420.465 472.592C416.095 468.558 414.75 468.558 410.044 473.937C406.346 477.971 400.295 479.988 394.58 479.652C388.865 479.316 383.822 480.997 382.813 483.35C381.805 487.048 379.788 487.047 374.409 484.358C367.685 480.66 366.005 482.677 367.349 492.762C367.685 494.443 366.005 493.771 363.651 490.745C359.617 486.039 358.609 486.039 352.558 491.754C348.86 495.452 343.481 497.469 340.119 496.797C337.093 495.788 330.37 497.805 324.991 500.831C319.948 503.856 309.191 506.546 301.459 506.21C294.063 506.21 288.348 507.218 289.02 508.227C291.037 511.589 283.305 513.606 270.867 513.27C264.479 512.933 260.109 514.614 260.109 516.967C260.109 519.321 256.747 521.337 252.377 521.337C246.326 521.337 245.99 520.665 250.024 517.976C252.713 516.295 253.385 514.614 251.705 514.95C249.687 514.95 243.972 518.312 238.594 522.682C233.215 527.389 226.827 530.078 224.138 529.07C221.449 528.061 217.414 530.078 214.725 533.44C212.372 537.138 209.01 538.819 207.665 537.474C206.321 536.129 200.606 537.81 194.554 541.508C188.503 545.206 182.788 547.223 181.78 545.879C180.435 544.87 179.427 545.542 179.427 547.559C179.427 549.577 176.401 550.585 172.703 549.913C169.005 549.24 165.979 550.249 165.979 552.266C165.979 553.947 163.962 554.955 161.273 553.947C158.584 552.938 155.558 554.619 154.213 557.645C152.869 561.679 151.524 562.015 149.507 558.99C147.826 555.964 145.809 557.308 143.119 563.36C140.43 569.075 137.741 571.092 134.715 569.411C132.698 568.066 133.37 571.092 136.732 576.471C140.766 582.746 140.542 585.099 136.06 583.53C131.017 581.849 129 582.858 129 586.556C129 589.581 130.345 591.935 132.362 591.935ZM159.256 558.317C160.937 558.317 162.618 558.989 162.618 559.662C162.618 560.67 160.937 562.351 159.256 563.36C157.239 564.368 155.894 563.696 155.894 562.015C155.894 559.998 157.239 558.317 159.256 558.317ZM206.321 571.764C208.002 571.764 209.682 572.436 209.682 573.109C209.682 574.117 208.002 575.798 206.321 576.807C204.304 577.815 202.959 577.143 202.959 575.462C202.959 573.445 204.304 571.764 206.321 571.764ZM376.762 493.435C379.116 494.444 381.133 495.452 381.133 496.124C381.133 496.797 379.116 497.805 376.762 498.814C374.073 499.822 372.056 498.477 372.056 496.124C372.056 493.771 374.073 492.427 376.762 493.435ZM549.221 438.974C551.238 437.966 551.574 439.31 550.566 442C548.212 448.051 545.859 449.06 545.859 444.353C545.859 442.336 547.204 439.983 549.221 438.974ZM567.711 437.966C568.719 438.974 567.038 440.991 563.676 442C558.97 444.017 558.634 443.681 561.66 440.319C564.013 437.966 566.702 436.957 567.711 437.966ZM583.511 434.94C585.864 435.949 584.183 436.621 579.477 436.621C574.77 436.621 573.09 435.949 575.107 434.94C577.46 434.268 581.494 434.268 583.511 434.94ZM642.678 428.889C643.687 429.897 642.678 432.587 640.325 434.94C636.963 437.966 636.627 437.63 638.644 432.923C639.653 429.561 641.669 427.88 642.678 428.889ZM733.11 413.425C738.488 409.055 738.825 409.391 734.454 414.434C730.084 420.149 727.395 421.829 727.395 419.14C727.395 418.468 730.084 415.778 733.11 413.425ZM863.21 393.59C864.219 393.59 865.899 394.935 866.908 396.952C867.916 398.633 867.244 400.314 865.563 400.314C863.546 400.314 861.865 398.633 861.865 396.952C861.865 394.935 862.538 393.59 863.21 393.59ZM921.032 409.055C923.722 408.046 925.067 408.382 924.058 410.399C923.049 412.416 920.696 413.761 918.679 413.761C913.973 413.761 914.981 411.408 921.032 409.055ZM943.22 409.055C953.978 410.399 956.331 410.063 952.633 407.374C946.918 403.34 951.961 402.331 960.701 405.693C970.114 409.391 966.416 413.761 954.314 413.761C947.927 413.761 942.548 415.106 942.548 417.123C942.548 418.804 940.867 420.484 939.186 420.484C937.169 420.484 935.824 418.131 935.824 415.442C935.824 412.752 934.143 410.399 932.462 410.399C930.445 410.399 929.101 409.727 929.101 408.718C929.101 407.71 935.488 407.71 943.22 409.055ZM1137.53 348.206C1139.55 347.198 1139.88 348.543 1138.87 351.232C1136.52 357.283 1134.17 358.292 1134.17 353.586C1134.17 351.569 1135.51 349.215 1137.53 348.206ZM1209.81 356.611C1212.5 356.611 1214.85 357.956 1214.85 359.973C1214.85 361.653 1212.5 362.326 1209.81 361.317C1207.12 359.973 1204.77 358.628 1204.77 357.956C1204.77 357.283 1207.12 356.611 1209.81 356.611ZM1231.66 595.296C1233.34 595.296 1235.02 596.978 1235.02 598.995C1235.02 600.675 1233.34 601.348 1231.66 600.339C1229.64 599.33 1228.3 597.65 1228.3 596.641C1228.3 595.969 1229.64 595.296 1231.66 595.296ZM1233.34 582.858C1236.03 582.858 1238.38 584.875 1238.38 587.565C1238.38 593.28 1232.67 593.28 1230.65 587.565C1229.64 585.547 1228.63 583.53 1228.63 583.194C1228.3 583.194 1230.65 582.858 1233.34 582.858ZM1288.81 340.811C1295.87 341.819 1302.26 346.526 1296.21 346.526C1291.84 346.526 1282.09 342.828 1282.09 341.147C1282.09 340.474 1285.11 340.138 1288.81 340.811ZM1313.01 471.92C1315.7 472.928 1314.7 473.937 1311 473.937C1307.3 474.273 1305.28 473.264 1306.63 472.256C1307.64 471.247 1310.66 470.911 1313.01 471.92ZM1363.1 181.799C1364.79 181.799 1366.13 183.144 1366.13 185.161C1366.13 186.842 1363.78 188.522 1360.75 188.522C1358.06 188.522 1356.72 186.842 1357.73 185.161C1358.73 183.144 1361.09 181.799 1363.1 181.799ZM1365.79 321.312C1367.48 320.304 1369.83 320.976 1371.17 322.993C1372.18 324.674 1370.84 326.355 1368.15 326.355C1362.1 326.355 1361.09 324.338 1365.79 321.312ZM1423.95 181.799C1425.3 181.799 1426.64 183.144 1426.64 184.825C1426.64 186.842 1425.3 188.859 1423.95 189.867C1422.27 190.876 1420.93 189.531 1420.93 186.842C1420.93 184.152 1422.27 181.799 1423.95 181.799ZM1433.37 426.2C1437.06 425.191 1439.42 425.864 1438.07 427.544C1437.06 429.225 1434.04 430.57 1431.35 430.57C1424.63 430.57 1425.63 428.217 1433.37 426.2ZM1520.77 195.246C1522.45 195.246 1524.13 197.599 1524.13 200.289C1524.13 202.978 1522.45 205.331 1520.77 205.331C1518.75 205.331 1517.41 202.978 1517.41 200.289C1517.41 197.599 1518.75 195.246 1520.77 195.246ZM1789.38 247.353C1794.76 247.017 1798.79 248.026 1797.78 249.371C1797.11 250.715 1799.13 252.396 1802.15 253.069C1805.51 253.741 1806.52 255.086 1804.84 256.094C1802.15 257.775 1779.63 250.715 1779.63 248.026C1779.63 247.69 1784 247.353 1789.38 247.353ZM1969.23 359.973C1970.24 359.973 1971.92 361.317 1972.93 363.334C1973.94 365.015 1973.27 366.696 1971.58 366.696C1969.57 366.696 1967.89 365.015 1967.89 363.334C1967.89 361.317 1968.56 359.973 1969.23 359.973Z" fill="#171717"/>
<path fill-rule="evenodd" clip-rule="evenodd" d="M869.596 381.489C872.958 380.48 874.638 378.464 873.63 377.455C872.621 376.446 869.932 377.455 867.579 379.808C864.553 383.17 864.889 383.506 869.596 381.489Z" fill="#171717"/>
<path d="M895.483 373.42C895.483 371.563 893.978 370.058 892.122 370.058C890.265 370.058 888.76 371.563 888.76 373.42C888.76 375.277 890.265 376.782 892.122 376.782C893.978 376.782 895.483 375.277 895.483 373.42Z" fill="#171717"/>
<path fill-rule="evenodd" clip-rule="evenodd" d="M1073.32 353.25C1075 353.25 1077.69 351.569 1078.7 349.888C1079.71 347.871 1079.37 346.527 1077.35 346.527C1075.67 346.527 1072.98 347.871 1071.98 349.888C1070.97 351.569 1071.3 353.25 1073.32 353.25Z" fill="#171717"/>
<path fill-rule="evenodd" clip-rule="evenodd" d="M1150.98 351.569C1153 352.578 1153.33 351.233 1152.32 348.544C1149.97 342.493 1147.62 341.484 1147.62 346.19C1147.62 348.207 1148.96 350.561 1150.98 351.569Z" fill="#171717"/>
<path fill-rule="evenodd" clip-rule="evenodd" d="M1271.67 492.09C1277.38 493.434 1278.73 493.098 1276.04 490.409C1274.36 488.728 1270.66 487.72 1268.3 488.392C1265.61 489.4 1267.3 490.745 1271.67 492.09Z" fill="#171717"/>
<path fill-rule="evenodd" clip-rule="evenodd" d="M1301.25 287.023C1304.27 290.385 1308.98 290.049 1308.98 286.687C1308.98 285.006 1306.63 283.661 1303.94 283.661C1298.22 283.661 1297.89 283.998 1301.25 287.023Z" fill="#171717"/>
<path fill-rule="evenodd" clip-rule="evenodd" d="M1365.79 447.379C1367.48 447.379 1370.17 445.698 1371.17 444.017C1372.18 442 1371.85 440.655 1369.83 440.655C1368.15 440.655 1365.46 442 1364.45 444.017C1363.44 445.698 1363.78 447.379 1365.79 447.379Z" fill="#171717"/>
<path fill-rule="evenodd" clip-rule="evenodd" d="M1900.32 265.843C1908.72 270.213 1910.74 270.214 1910.74 265.171C1910.74 263.154 1909.73 262.482 1908.72 263.49C1907.37 264.499 1903.68 264.162 1900.32 262.145C1896.62 260.464 1893.93 259.792 1893.93 260.464C1893.93 261.473 1896.95 263.826 1900.32 265.843Z" fill="#171717"/>
</svg>
